<svg width="28" height="28" viewBox="0 0 28 28" fill="none" xmlns="http://www.w3.org/2000/svg">
<path d="M19.472 1.82927C19.0315 1.3888 18.4943 1.05729 17.903 0.861159C17.3118 0.665028 16.6829 0.609693 16.0665 0.699564C15.4501 0.789434 14.8632 1.02203 14.3526 1.37881C13.842 1.73559 13.4217 2.2067 13.1254 2.7546L9.05335 10.2879L2.84002 12.7626C2.63482 12.8442 2.4531 12.9755 2.31117 13.1446C2.16924 13.3138 2.07156 13.5156 2.02688 13.7318C1.9822 13.9481 1.99193 14.172 2.0552 14.3836C2.11846 14.5952 2.23329 14.7877 2.38935 14.9439L6.78135 19.3359L1.05869 25.0586L0.666687 27.3359L2.94402 26.9439L8.66669 21.2213L13.056 25.6106C13.2121 25.7667 13.4044 25.8817 13.6158 25.9451C13.8273 26.0086 14.0511 26.0186 14.2674 25.9742C14.4836 25.9297 14.6854 25.8323 14.8547 25.6907C15.024 25.5491 15.1555 25.3676 15.2374 25.1626L17.7254 18.9439L25.248 14.8746C25.7959 14.5782 26.267 14.158 26.6238 13.6474C26.9806 13.1367 27.2132 12.5498 27.3031 11.9334C27.3929 11.317 27.3376 10.6882 27.1415 10.0969C26.9453 9.50567 26.6138 8.96841 26.1734 8.52793L19.472 1.82927Z" fill="#8F8F8F"/>
</svg>
