<svg width="25" height="25" viewBox="0 0 25 25" fill="none" xmlns="http://www.w3.org/2000/svg">
<path d="M20.1365 4.86353C19.7015 5.29853 19.6653 5.9752 20.052 6.45853C21.804 8.6577 22.7224 11.6665 21.9007 14.8202C20.9461 18.5056 18.0582 21.2606 14.397 21.9977C8.23446 23.2181 2.83321 18.4573 2.83321 12.5002C2.83321 7.5702 6.51863 3.5102 11.2915 2.91812V5.35895C9.41332 5.67579 7.73532 6.71929 6.62051 8.26374C5.5057 9.80819 5.04371 11.7294 5.33446 13.6119C5.80571 16.7656 8.4278 19.3031 11.5936 19.6898C12.9754 19.8631 14.3779 19.6348 15.6334 19.0321C16.8889 18.4295 17.9442 17.478 18.6732 16.2914C19.4023 15.1048 19.7741 13.7334 19.7443 12.3411C19.7146 10.9488 19.2844 9.59451 18.5053 8.4402C18.0945 7.83603 17.2124 7.79978 16.6928 8.30728L16.6807 8.31937C16.2699 8.7302 16.2336 9.37062 16.5478 9.85395C17.2728 10.9656 17.5628 12.3914 17.1399 13.8656C16.8991 14.6892 16.443 15.4335 15.8185 16.0219C15.194 16.6103 14.4238 17.0214 13.5874 17.2127C12.8786 17.3764 12.1421 17.3779 11.4326 17.2173C10.7231 17.0567 10.0591 16.738 9.48994 16.285C8.92079 15.832 8.46123 15.2564 8.14552 14.6011C7.8298 13.9458 7.66608 13.2276 7.66654 12.5002C7.66654 10.2527 9.21321 8.37978 11.2915 7.83603V10.4219C10.5665 10.8448 10.0832 11.606 10.0832 12.5002C10.0832 13.8294 11.1707 14.9169 12.4999 14.9169C13.829 14.9169 14.9165 13.8294 14.9165 12.5002C14.9165 11.606 14.4332 10.8327 13.7082 10.4219V1.27478C13.7082 0.803533 13.3215 0.416866 12.8503 0.416866C6.37363 0.175199 0.791129 5.3227 0.440712 11.7752C0.00571191 19.6898 6.9778 26.0577 14.9528 24.3419C19.6411 23.3389 23.2661 19.7502 24.3174 15.0739C25.1753 11.2556 24.0757 7.63062 21.937 4.9602C21.8306 4.8273 21.6973 4.71838 21.5459 4.64057C21.3945 4.56277 21.2284 4.51783 21.0584 4.5087C20.8884 4.49957 20.7184 4.52647 20.5596 4.58761C20.4007 4.64876 20.2565 4.74279 20.1365 4.86353Z" fill="#8F8F8F"/>
</svg>
